<?xml version="1.0" standalone="no"?>
<!DOCTYPE svg PUBLIC "-//W3C//DTD SVG 20010904//EN"
 "http://www.w3.org/TR/2001/REC-SVG-20010904/DTD/svg10.dtd">
<svg version="1.0" xmlns="http://www.w3.org/2000/svg"
 width="500.000000pt" height="500.000000pt" viewBox="0 0 500.000000 500.000000"
 preserveAspectRatio="xMidYMid meet">

<g transform="translate(0.000000,500.000000) scale(0.100000,-0.100000)"
fill="#000000" stroke="none">
<path d="M0 2500 l0 -2500 2500 0 2500 0 0 2500 0 2500 -2500 0 -2500 0 0
-2500z m2189 109 c36 -13 50 -48 35 -88 -7 -18 -6 -34 3 -51 17 -34 16 -43 -8
-74 -19 -24 -26 -26 -100 -26 l-79 0 0 118 c0 65 3 122 7 125 10 11 107 8 142
-4z m521 -61 l0 -72 36 42 c24 28 44 42 60 42 13 0 24 -3 24 -6 0 -3 -16 -25
-34 -48 l-35 -42 40 -47 41 -47 -30 0 c-23 0 -39 10 -66 42 l-36 42 0 -42 c0
-38 -2 -42 -25 -42 l-25 0 0 125 0 125 25 0 c24 0 25 -2 25 -72z m250 -10 l45
-81 5 79 c5 76 6 79 30 79 l25 0 3 -122 3 -123 -38 0 c-37 0 -39 2 -83 83
l-45 82 -3 -82 c-3 -81 -3 -83 -27 -83 l-25 0 0 125 0 125 33 0 c30 0 35 -5
77 -82z m772 52 c10 -12 18 -26 18 -31 0 -12 -47 -11 -55 1 -8 13 -62 13 -70
0 -11 -18 13 -37 60 -49 72 -18 95 -71 50 -116 -19 -20 -34 -25 -75 -25 -41 0
-56 5 -75 25 -33 32 -31 45 5 45 17 0 30 -4 30 -9 0 -14 37 -23 60 -16 37 12
24 43 -22 55 -67 18 -88 35 -88 74 0 32 18 56 50 69 30 12 94 -1 112 -23z m98
-10 c0 -37 2 -40 19 -30 61 32 101 -12 101 -111 0 -67 -1 -69 -25 -69 -23 0
-24 3 -27 68 -3 62 -5 67 -27 70 -32 5 -41 -12 -41 -80 0 -55 -1 -58 -25 -58
l-25 0 0 118 c0 65 3 122 7 125 3 4 15 7 25 7 14 0 18 -8 18 -40z m-2402 -7
c18 -20 20 -28 11 -39 -15 -18 -35 -18 -42 0 -4 9 1 16 11 19 13 3 11 7 -11
17 -40 19 -59 -1 -30 -32 12 -14 21 -38 21 -60 1 -34 -1 -38 -23 -38 -16 0
-23 5 -23 18 1 9 -2 42 -6 74 -6 49 -5 58 11 67 24 14 53 5 81 -26z m975 -33
c31 -25 43 -74 27 -114 -15 -40 -38 -55 -86 -56 -46 0 -77 25 -88 72 -8 33 15
92 41 107 29 17 78 13 106 -9z m209 -10 c26 -32 24 -107 -4 -137 -23 -25 -83
-32 -117 -13 -49 26 -51 123 -3 161 34 27 98 21 124 -11z m640 0 c26 -32 24
-107 -4 -137 -23 -25 -83 -32 -117 -13 -49 26 -51 123 -3 161 34 27 98 21 124
-11z m88 -12 c22 -86 22 -86 39 -23 14 53 19 60 41 60 22 0 27 -7 41 -60 17
-63 17 -63 39 23 9 36 15 43 33 40 25 -4 26 2 -3 -105 -21 -79 -24 -83 -50
-83 -25 0 -29 5 -41 50 -12 46 -29 68 -29 38 0 -7 -5 -30 -11 -50 -9 -33 -14
-38 -39 -38 -27 0 -31 4 -45 58 -9 31 -21 70 -26 86 -13 42 -12 46 16 46 20 0
26 -7 35 -42z m792 12 c26 -32 24 -107 -4 -137 -23 -25 -83 -32 -117 -13 -49
26 -51 123 -3 161 34 27 98 21 124 -11z m88 -12 c22 -86 22 -86 39 -23 14 53
19 60 41 60 22 0 27 -7 41 -60 17 -63 17 -63 39 23 9 36 15 43 33 40 25 -4 26
2 -3 -105 -21 -79 -24 -83 -50 -83 -25 0 -29 5 -41 50 -12 46 -29 68 -29 38 0
-7 -5 -30 -11 -50 -9 -33 -14 -38 -39 -38 -27 0 -31 4 -45 58 -9 31 -21 70
-26 86 -13 42 -12 46 16 46 20 0 26 -7 35 -42z"/>
<path d="M2100 2540 c0 -26 3 -30 29 -30 32 0 56 22 47 45 -3 9 -18 15 -41 15
-32 0 -35 -2 -35 -30z"/>
<path d="M2100 2446 c0 -24 4 -26 41 -26 36 0 40 2 37 23 -2 18 -10 23 -40 25
-35 3 -38 1 -38 -22z"/>
<path d="M2309 2484 c-11 -30 10 -74 36 -74 18 0 45 28 45 46 0 54 -62 75 -81
28z"/>
<path d="M2512 2498 c-17 -17 -15 -53 4 -72 33 -34 67 -8 62 46 -2 27 -8 34
-28 36 -14 2 -31 -3 -38 -10z"/>
<path d="M3152 2498 c-17 -17 -15 -53 4 -72 33 -34 67 -8 62 46 -2 27 -8 34
-28 36 -14 2 -31 -3 -38 -10z"/>
<path d="M4032 2498 c-17 -17 -15 -53 4 -72 33 -34 67 -8 62 46 -2 27 -8 34
-28 36 -14 2 -31 -3 -38 -10z"/>
</g>
</svg>
