<?xml version="1.0" standalone="no"?>
<!DOCTYPE svg PUBLIC "-//W3C//DTD SVG 20010904//EN"
 "http://www.w3.org/TR/2001/REC-SVG-20010904/DTD/svg10.dtd">
<svg version="1.0" xmlns="http://www.w3.org/2000/svg"
 width="500.000000pt" height="500.000000pt" viewBox="0 0 500.000000 500.000000"
 preserveAspectRatio="xMidYMid meet">

<g transform="translate(0.000000,500.000000) scale(0.100000,-0.100000)"
fill="#000000" stroke="none">
<path d="M2972 3082 c-30 -9 -28 -19 19 -69 43 -47 53 -52 45 -25 -3 9 -10 36
-16 60 -6 23 -14 42 -18 41 -4 -1 -17 -4 -30 -7z"/>
<path d="M2740 3021 l-95 -26 51 -48 51 -47 90 21 89 22 -48 45 c-35 33 -45
48 -36 54 19 11 4 8 -102 -21z"/>
<path d="M2448 2946 l-77 -21 42 -51 42 -50 83 20 c45 12 83 25 83 29 0 11
-80 97 -89 96 -4 -1 -42 -11 -84 -23z"/>
<path d="M2174 2874 c-44 -11 -77 -25 -75 -30 2 -5 20 -28 40 -51 l36 -42 87
22 87 22 -48 50 -48 51 -79 -22z"/>
<path d="M1975 2825 c-5 -2 -36 -11 -67 -19 l-56 -16 10 -38 c15 -55 34 -173
81 -524 24 -174 46 -320 49 -324 7 -6 1156 141 1165 149 3 3 -13 146 -35 319
-22 172 -44 343 -47 381 -4 37 -10 67 -14 67 -4 0 -15 -25 -26 -56 -10 -30
-22 -57 -27 -60 -4 -3 -30 -8 -58 -11 -58 -7 -58 -5 -30 68 l21 51 -23 -5
c-13 -3 -52 -8 -88 -12 l-66 -7 -22 -63 -23 -63 -55 -7 c-31 -4 -57 -5 -59 -3
-2 2 8 29 21 62 l24 58 -41 -6 c-22 -4 -67 -9 -100 -13 -33 -3 -55 -9 -49 -13
8 -5 4 -24 -13 -62 -25 -55 -25 -55 -78 -61 -29 -4 -54 -5 -56 -3 -2 1 6 26
18 55 12 28 19 54 16 57 -4 5 -157 -13 -163 -19 -1 -1 -13 -29 -26 -62 l-24
-60 -54 -8 c-29 -4 -55 -6 -57 -3 -2 2 5 27 17 55 11 28 20 54 20 56 0 3 -13
5 -30 5 -45 0 -36 17 13 25 34 6 38 9 22 15 -29 12 -88 77 -81 89 4 6 6 11 4
10 -2 0 -7 -2 -13 -4z m-17 -66 c4 -30 -22 -46 -44 -28 -15 12 -19 41 -7 53
16 16 48 1 51 -25z m1090 -194 c-3 -3 -232 -34 -509 -70 -277 -36 -522 -68
-544 -71 -22 -4 -36 -2 -32 2 8 9 987 141 1056 143 19 1 32 -1 29 -4z m7 -165
c-16 -7 -1038 -141 -1069 -140 -5 0 -7 3 -3 6 6 7 1021 142 1067 142 23 1 23
0 5 -8z m20 -160 c-11 -5 -82 -16 -158 -26 l-138 -17 5 -38 c3 -22 9 -58 12
-80 4 -27 3 -39 -4 -35 -5 3 -13 37 -17 76 -6 63 -9 70 -29 70 -11 0 -106 -11
-210 -25 -104 -14 -192 -25 -196 -25 -3 0 -3 -24 1 -52 9 -63 11 -113 4 -107
-2 3 -10 39 -16 80 l-11 75 -131 -18 c-133 -18 -195 -22 -167 -11 17 7 1012
141 1050 141 23 1 23 0 5 -8z"/>
</g>
</svg>
