<?xml version="1.0" standalone="no"?>
<!DOCTYPE svg PUBLIC "-//W3C//DTD SVG 20010904//EN"
 "http://www.w3.org/TR/2001/REC-SVG-20010904/DTD/svg10.dtd">
<svg version="1.0" xmlns="http://www.w3.org/2000/svg"
 width="500.000000pt" height="500.000000pt" viewBox="0 0 500.000000 500.000000"
 preserveAspectRatio="xMidYMid meet">

<g transform="translate(0.000000,500.000000) scale(0.100000,-0.100000)"
fill="#000000" stroke="none">
<path d="M2740 3310 c-58 -15 -213 -56 -345 -90 -132 -34 -263 -68 -291 -76
l-50 -14 17 -88 c10 -48 30 -183 45 -300 16 -116 30 -216 34 -221 3 -6 171 12
405 43 l400 52 -2 29 c-2 17 -14 116 -28 221 -14 105 -25 206 -25 225 0 19 -4
40 -9 48 -10 16 -18 15 -500 -49 -198 -26 -246 -29 -230 -17 2 2 123 34 269
72 146 37 303 78 350 90 l85 22 -3 34 c-1 18 -6 37 -10 40 -4 4 -54 -6 -112
-21z m-614 -198 c1 -7 0 -8 -3 -2 -6 12 -33 14 -33 2 0 -4 4 -13 10 -20 5 -7
3 -6 -6 2 -9 8 -13 19 -9 26 9 14 38 9 41 -8z m752 -137 c-3 -3 -160 -25 -349
-50 -189 -24 -356 -47 -371 -49 -16 -3 -28 -2 -28 2 0 4 156 28 348 53 349 47
410 53 400 44z m-3 -115 c-11 -5 -166 -27 -345 -50 -179 -22 -341 -44 -360
-47 -19 -3 -32 -2 -28 2 6 6 691 102 738 103 9 1 7 -3 -5 -8z m30 -110 c-3 -5
-17 -10 -30 -10 -13 0 -59 -5 -101 -11 l-77 -12 6 -56 c4 -36 3 -50 -3 -41 -5
8 -10 31 -10 51 0 20 -2 38 -5 41 -3 2 -65 -3 -137 -13 -73 -10 -139 -19 -147
-19 -11 0 -12 -12 -8 -57 4 -37 3 -51 -3 -38 -5 11 -9 34 -9 51 -1 17 -3 33
-6 35 -2 3 -44 0 -92 -7 -100 -14 -129 -16 -121 -8 4 4 515 75 741 103 5 1 5
-3 2 -9z"/>
<path d="M1850 2260 l0 -170 25 0 c22 0 25 4 25 33 0 22 8 41 23 55 l23 22 33
-55 c28 -46 38 -55 62 -55 16 0 29 2 29 5 0 3 -21 37 -47 75 l-46 71 43 44 44
45 -29 0 c-22 0 -43 -13 -82 -52 l-53 -52 0 102 0 102 -25 0 -25 0 0 -170z"/>
<path d="M3460 2260 l0 -170 25 0 c24 0 25 2 25 65 0 77 13 110 51 126 24 9
33 9 54 -5 23 -15 25 -22 25 -101 0 -84 0 -85 25 -85 25 0 25 0 25 98 0 90 -2
100 -23 120 -17 16 -36 22 -67 22 -31 0 -50 -6 -67 -22 l-23 -21 0 71 c0 70
-1 72 -25 72 l-25 0 0 -170z"/>
<path d="M950 2249 l0 -161 104 4 c94 3 107 5 130 27 36 34 36 92 0 120 l-25
20 20 20 c21 21 27 55 15 86 -12 31 -59 45 -154 45 l-90 0 0 -161z m190 92
c13 -25 13 -27 -6 -45 -10 -11 -34 -16 -70 -16 l-54 0 0 40 0 40 60 0 c48 0
61 -4 70 -19z m2 -128 c43 -39 9 -73 -73 -73 l-59 0 0 45 0 45 57 0 c38 0 62
-5 75 -17z"/>
<path d="M2120 2250 l0 -160 30 0 30 0 0 112 0 112 83 -112 c69 -94 86 -111
110 -112 l27 0 0 160 0 160 -25 0 c-24 0 -24 0 -27 -112 l-3 -113 -85 113
c-72 95 -89 112 -112 112 l-28 0 0 -160z"/>
<path d="M3215 2399 c-33 -19 -45 -41 -45 -79 0 -46 19 -64 98 -91 68 -23 89
-52 56 -76 -26 -19 -69 -16 -114 7 l-39 20 -12 -21 c-9 -17 -8 -24 2 -31 85
-59 200 -48 229 22 25 61 7 82 -115 137 -31 14 -40 23 -40 43 0 23 4 25 45 24
25 0 57 -4 71 -8 32 -9 49 19 24 43 -19 19 -132 26 -160 10z"/>
<path d="M1301 2314 c-13 -9 -29 -32 -37 -50 -41 -97 26 -183 132 -171 69 7
104 48 104 118 0 45 -4 55 -34 85 -30 30 -40 34 -88 34 -33 0 -62 -6 -77 -16z
m126 -46 c33 -31 32 -90 -3 -117 -15 -12 -33 -21 -40 -21 -28 0 -63 24 -74 50
-32 78 56 145 117 88z"/>
<path d="M1574 2296 c-29 -29 -34 -41 -34 -83 0 -76 47 -123 125 -123 96 0
154 95 110 180 -23 44 -53 60 -113 60 -48 0 -58 -4 -88 -34z m133 -21 c50 -35
32 -127 -26 -140 -77 -17 -126 86 -65 134 32 25 61 27 91 6z"/>
<path d="M2499 2302 c-23 -21 -32 -39 -36 -73 -9 -82 41 -139 122 -139 76 0
125 51 125 131 0 33 -6 47 -34 75 -31 31 -40 34 -90 34 -47 0 -61 -4 -87 -28z
m136 -37 c16 -15 25 -36 25 -55 0 -38 -39 -80 -75 -80 -36 0 -75 42 -75 80 0
38 39 80 75 80 14 0 37 -11 50 -25z"/>
<path d="M2730 2328 c0 -2 20 -55 43 -118 41 -110 44 -115 72 -115 26 0 30 5
54 77 14 42 29 80 33 83 3 4 19 -32 34 -80 28 -83 29 -86 57 -83 28 3 32 10
72 121 l42 117 -26 0 c-25 0 -29 -7 -57 -92 l-30 -93 -31 90 c-28 85 -31 90
-60 93 -29 3 -30 2 -57 -88 -15 -51 -29 -90 -32 -87 -2 2 -17 42 -33 88 -25
75 -31 84 -54 87 -15 2 -27 2 -27 0z"/>
<path d="M3802 2317 c-78 -44 -73 -171 9 -215 36 -20 115 -10 144 18 56 53 54
148 -5 190 -32 23 -111 27 -148 7z m118 -47 c31 -31 27 -93 -6 -119 -15 -12
-34 -21 -44 -21 -10 0 -29 9 -44 21 -20 16 -26 29 -26 59 0 70 74 106 120 60z"/>
<path d="M4020 2323 c0 -5 19 -59 41 -120 40 -107 44 -113 70 -113 26 0 29 5
55 84 28 87 37 96 48 51 4 -14 16 -50 27 -80 18 -48 24 -55 47 -55 25 0 30 7
66 108 21 59 41 113 44 120 3 10 -3 13 -24 10 -26 -3 -30 -10 -54 -85 -15 -46
-29 -85 -31 -88 -3 -2 -18 36 -34 85 -27 85 -30 90 -56 90 -26 0 -30 -6 -55
-85 -16 -47 -31 -85 -34 -85 -3 0 -18 38 -34 85 -24 76 -30 85 -52 85 -13 0
-24 -3 -24 -7z"/>
<path d="M1450 1845 c0 -30 5 -55 10 -55 6 0 10 25 10 55 0 30 -4 55 -10 55
-5 0 -10 -25 -10 -55z"/>
<path d="M1510 1890 c0 -5 7 -10 15 -10 11 0 15 -12 15 -45 0 -25 5 -45 10
-45 6 0 10 20 10 45 0 33 4 45 15 45 8 0 15 5 15 10 0 6 -18 10 -40 10 -22 0
-40 -4 -40 -10z"/>
<path d="M1632 1880 c0 -14 2 -19 5 -12 2 6 2 18 0 25 -3 6 -5 1 -5 -13z"/>
<path d="M1690 1885 c-15 -18 -1 -40 31 -50 31 -10 22 -28 -11 -23 -16 3 -30
1 -30 -4 0 -14 28 -21 55 -14 36 9 33 44 -5 57 -32 12 -31 34 1 26 23 -6 35 9
13 17 -25 10 -41 7 -54 -9z"/>
<path d="M1877 1848 c-24 -54 -26 -71 -5 -50 16 16 65 15 71 0 2 -7 7 -10 11
-6 9 7 -33 108 -45 108 -4 0 -19 -24 -32 -52z m38 -16 c-22 -5 -27 1 -19 23 7
17 8 17 21 -1 12 -17 12 -19 -2 -22z"/>
<path d="M2008 1894 c-5 -4 -8 -29 -8 -56 l0 -48 35 0 c19 0 35 5 35 10 0 6
-11 10 -24 10 -22 0 -25 5 -28 46 -2 25 -6 42 -10 38z"/>
<path d="M2110 1845 c0 -54 0 -55 30 -55 17 0 30 5 30 10 0 6 -9 10 -20 10
-17 0 -20 7 -20 45 0 25 -4 45 -10 45 -5 0 -10 -25 -10 -55z"/>
<path d="M2280 1885 c-15 -18 -1 -40 31 -50 31 -10 22 -28 -11 -23 -16 3 -30
1 -30 -4 0 -14 28 -21 55 -14 36 9 33 44 -5 57 -32 12 -31 34 1 26 23 -6 35 9
13 17 -25 10 -41 7 -54 -9z"/>
<path d="M2380 1890 c0 -5 9 -10 19 -10 16 0 21 -8 24 -47 l3 -48 2 48 c2 40
5 47 22 47 11 0 20 5 20 10 0 6 -20 10 -45 10 -25 0 -45 -4 -45 -10z"/>
<path d="M2517 1848 c-24 -54 -26 -71 -5 -50 16 16 65 15 71 0 2 -7 7 -10 11
-6 9 7 -33 108 -45 108 -4 0 -19 -24 -32 -52z m38 -16 c-22 -5 -27 1 -19 23 7
17 8 17 21 -1 12 -17 12 -19 -2 -22z"/>
<path d="M2640 1845 c0 -30 5 -55 10 -55 6 0 10 7 10 15 0 8 6 15 14 15 7 0
19 -7 26 -15 7 -8 17 -15 22 -15 6 0 5 7 -2 15 -10 12 -10 19 -2 27 30 30 1
68 -52 68 -25 0 -26 -3 -26 -55z m65 15 c0 -8 -10 -16 -22 -18 -18 -3 -23 2
-23 18 0 16 5 21 23 18 12 -2 22 -10 22 -18z"/>
<path d="M2765 1890 c-3 -5 3 -10 14 -10 18 0 21 -6 21 -45 0 -25 5 -45 10
-45 6 0 10 20 10 45 0 33 4 45 15 45 8 0 15 5 15 10 0 6 -18 10 -39 10 -22 0
-43 -4 -46 -10z"/>
<path d="M2903 1893 c-22 -8 -14 -43 12 -53 36 -14 32 -34 -5 -26 -36 7 -41
-11 -5 -20 34 -8 55 1 55 26 0 13 -10 24 -25 30 -14 5 -25 15 -25 21 0 7 10 9
25 7 28 -6 34 6 9 16 -18 7 -23 7 -41 -1z"/>
<path d="M3070 1845 c0 -30 5 -55 10 -55 6 0 10 9 10 20 0 15 7 20 25 20 18 0
25 -5 25 -20 0 -11 5 -20 10 -20 6 0 10 25 10 56 0 34 -4 53 -10 49 -5 -3 -10
-15 -10 -26 0 -14 -7 -19 -25 -19 -20 0 -25 5 -25 25 0 14 -4 25 -10 25 -5 0
-10 -25 -10 -55z"/>
<path d="M3217 1893 c-4 -3 -7 -28 -7 -55 l0 -48 40 0 c22 0 40 5 40 10 0 6
-14 10 -31 10 -36 0 -35 21 2 31 24 7 24 7 -3 8 -40 1 -38 31 2 31 17 0 30 5
30 10 0 11 -63 14 -73 3z"/>
<path d="M3351 1849 c-11 -29 -18 -55 -15 -58 4 -3 9 0 11 7 6 14 59 16 68 2
3 -5 10 -10 15 -10 11 0 -34 103 -47 107 -6 2 -20 -20 -32 -48z m49 -11 c0 -5
-9 -8 -20 -8 -18 0 -19 3 -9 21 9 17 13 19 20 8 5 -8 9 -17 9 -21z"/>
<path d="M3477 1893 c-11 -10 -8 -103 3 -103 6 0 10 7 10 15 0 8 9 15 19 15
10 0 21 -7 25 -15 3 -8 10 -15 16 -15 7 0 8 6 0 19 -7 13 -7 22 0 26 17 10 11
44 -9 55 -22 11 -54 13 -64 3z m63 -33 c0 -15 -7 -20 -25 -20 -18 0 -25 5 -25
20 0 15 7 20 25 20 18 0 25 -5 25 -20z"/>
</g>
</svg>
